<svg id="Capa_1" data-name="Capa 1" xmlns="http://www.w3.org/2000/svg" viewBox="0 0 800 600"><defs><style>.cls-1{fill:#0a0a0a;}.cls-2{fill:#fff;}</style></defs><rect class="cls-1" x="47" y="208" width="705" height="155"/><path class="cls-2" d="M95.46,310.07a2.36,2.36,0,0,1-.75,1.57,2.15,2.15,0,0,1-1.53.64,2.08,2.08,0,0,1-1.65-.64,2.28,2.28,0,0,1-.57-1.57V264.51a2.18,2.18,0,0,1,.64-1.57,2.23,2.23,0,0,1,1.65-.64,2.15,2.15,0,0,1,1.53.64,2.1,2.1,0,0,1,.68,1.57Z"/><path class="cls-2" d="M145.37,262.3a1.89,1.89,0,0,1,1.46.57,2,2,0,0,1,.54,1.43V310a2.13,2.13,0,0,1-.68,1.67,2.21,2.21,0,0,1-1.54.61,2.64,2.64,0,0,1-1-.18,1.71,1.71,0,0,1-.75-.53L111.6,268.73l1.21-.72v42.34a1.85,1.85,0,0,1-.57,1.36,1.94,1.94,0,0,1-1.43.57,1.9,1.9,0,0,1-2-1.93V264.44a2,2,0,0,1,2.07-2.14,2.73,2.73,0,0,1,.93.18,1.55,1.55,0,0,1,.79.61l31.48,42.41-.71,1.28V264.3a1.95,1.95,0,0,1,2-2Z"/><path class="cls-2" d="M163,312.28a2.14,2.14,0,0,1-2.22-2.14v-45.7a2.1,2.1,0,0,1,.61-1.5,2,2,0,0,1,1.53-.64h26a2.08,2.08,0,0,1,1.5.61,2,2,0,0,1,.65,1.53,2,2,0,0,1-.65,1.47,2.12,2.12,0,0,1-1.5.6H164.86l.29-.43v19l-.36-.64h20.92a2.13,2.13,0,0,1,1.5.6,2,2,0,0,1,.64,1.54,1.92,1.92,0,0,1-.64,1.46,2.1,2.1,0,0,1-1.5.61H164.65l.5-.65v22.14a2.14,2.14,0,0,1-.61,1.5A2,2,0,0,1,163,312.28Z"/><path class="cls-2" d="M245.12,287.29a29.41,29.41,0,0,1-1.75,10.32,24.32,24.32,0,0,1-5,8.14,22.17,22.17,0,0,1-7.6,5.35,25.3,25.3,0,0,1-19.24,0,22.24,22.24,0,0,1-7.57-5.35,24.89,24.89,0,0,1-5-8.14A30.81,30.81,0,0,1,199,277a25,25,0,0,1,5-8.14,22.38,22.38,0,0,1,7.57-5.35,25.43,25.43,0,0,1,19.24,0,22.31,22.31,0,0,1,7.6,5.35,24.42,24.42,0,0,1,5,8.14A29.41,29.41,0,0,1,245.12,287.29Zm-4.57,0a24,24,0,0,0-2.5-11.17,19,19,0,0,0-6.82-7.54,18.55,18.55,0,0,0-10-2.71,18.74,18.74,0,0,0-10,2.71,18.55,18.55,0,0,0-6.86,7.54,26.61,26.61,0,0,0,0,22.35A19.32,19.32,0,0,0,231.23,306a19.07,19.07,0,0,0,6.82-7.53A24,24,0,0,0,240.55,287.29Z"/><path class="cls-2" d="M269,313a22.87,22.87,0,0,1-9.43-1.68A25.74,25.74,0,0,1,252,306a3.88,3.88,0,0,1-.61-.79,2,2,0,0,1-.25-1,2.26,2.26,0,0,1,.68-1.57,2.1,2.1,0,0,1,1.54-.71,2.21,2.21,0,0,1,1.57.71,19,19,0,0,0,6.32,4.57,18.43,18.43,0,0,0,7.6,1.57,16.24,16.24,0,0,0,6.11-1.07,9.92,9.92,0,0,0,4.24-3.07,7.27,7.27,0,0,0,1.57-4.64,7.94,7.94,0,0,0-1.82-5.28,13.73,13.73,0,0,0-4.67-3.36,44.35,44.35,0,0,0-6.5-2.36q-2.92-.92-5.6-2a19.81,19.81,0,0,1-4.72-2.71,11.41,11.41,0,0,1-3.18-4,12.84,12.84,0,0,1-1.14-5.64,11.78,11.78,0,0,1,2-6.74,13.31,13.31,0,0,1,5.68-4.65,20.48,20.48,0,0,1,8.53-1.67,23.33,23.33,0,0,1,8.1,1.42,14,14,0,0,1,6.18,4.22,3.24,3.24,0,0,1,1.07,2.07,2,2,0,0,1-.71,1.46,2.26,2.26,0,0,1-1.57.68,1.68,1.68,0,0,1-1.22-.5,12.62,12.62,0,0,0-3.07-2.68,15.84,15.84,0,0,0-4.1-1.82,17.84,17.84,0,0,0-10.71.39,9.81,9.81,0,0,0-4.22,3,7.32,7.32,0,0,0-1.53,4.71,7,7,0,0,0,1.71,4.89,13.44,13.44,0,0,0,4.5,3.14c1.86.84,3.83,1.61,5.93,2.32a60.69,60.69,0,0,1,5.89,2,21,21,0,0,1,5,2.75,11.5,11.5,0,0,1,3.42,4.14,13.88,13.88,0,0,1,1.25,6.28,11.1,11.1,0,0,1-2.07,6.57,14.29,14.29,0,0,1-5.67,4.64A20.35,20.35,0,0,1,269,313Z"/><path class="cls-2" d="M297.67,262.3a2.15,2.15,0,0,1,1.53.64,2.1,2.1,0,0,1,.68,1.57v45.56a2.36,2.36,0,0,1-.75,1.57,2.15,2.15,0,0,1-1.53.64,2.08,2.08,0,0,1-1.65-.64,2.28,2.28,0,0,1-.57-1.57V264.51a2.18,2.18,0,0,1,.64-1.57A2.23,2.23,0,0,1,297.67,262.3Zm-.36,22.35h33.91l-.07,4.21H297Zm33.84-22.35a2.11,2.11,0,0,1,1.61.64,2.24,2.24,0,0,1,.61,1.57v45.56a2.53,2.53,0,0,1-.68,1.57,2.23,2.23,0,0,1-3.82-1.57V264.51a2.07,2.07,0,0,1,.68-1.57A2.23,2.23,0,0,1,331.15,262.3Z"/><path class="cls-2" d="M391.34,287.29a29.18,29.18,0,0,1-1.75,10.32,24.3,24.3,0,0,1-5,8.14,22.17,22.17,0,0,1-7.6,5.35,25.3,25.3,0,0,1-19.24,0,22.24,22.24,0,0,1-7.57-5.35,24.72,24.72,0,0,1-5-8.14,30.64,30.64,0,0,1,0-20.64,24.82,24.82,0,0,1,5-8.14,22.38,22.38,0,0,1,7.57-5.35,25.43,25.43,0,0,1,19.24,0,22.31,22.31,0,0,1,7.6,5.35,24.4,24.4,0,0,1,5,8.14A29.18,29.18,0,0,1,391.34,287.29Zm-4.57,0a24,24,0,0,0-2.49-11.17,19,19,0,0,0-6.82-7.54,18.56,18.56,0,0,0-10-2.71,18.77,18.77,0,0,0-10,2.71,18.53,18.53,0,0,0-6.85,7.54,26.51,26.51,0,0,0,0,22.35A19.32,19.32,0,0,0,377.46,306a19.07,19.07,0,0,0,6.82-7.53A24,24,0,0,0,386.77,287.29Z"/><path class="cls-2" d="M459,262.16a2.61,2.61,0,0,1,1.57.53,1.89,1.89,0,0,1,.72,1.61,3.21,3.21,0,0,1-.15.93l-15.78,45.69a1.78,1.78,0,0,1-.78,1,2.12,2.12,0,0,1-1.14.36,2.62,2.62,0,0,1-1.29-.32,2,2,0,0,1-.86-1l-12.63-31.27.57.14-12.64,31.13a1.92,1.92,0,0,1-.89,1,2.73,2.73,0,0,1-1.25.32,2.13,2.13,0,0,1-1.15-.36,1.78,1.78,0,0,1-.78-1L396.7,265.23a3,3,0,0,1-.14-.86,1.91,1.91,0,0,1,.78-1.64,2.66,2.66,0,0,1,1.57-.57,2.45,2.45,0,0,1,1.29.35,1.84,1.84,0,0,1,.78,1l14.35,41.85-.78.07,12.42-31a2.19,2.19,0,0,1,.75-1,2.6,2.6,0,0,1,2.5,0,2.56,2.56,0,0,1,.82,1l12.21,30.84-.71.29,14.28-42.06a1.84,1.84,0,0,1,.78-1A2.6,2.6,0,0,1,459,262.16Z"/><path class="cls-2" d="M472.53,312.28a2.42,2.42,0,0,1-1.75-.64,2,2,0,0,1-.68-1.5v-45.7a2.1,2.1,0,0,1,.61-1.5,2,2,0,0,1,1.53-.64h19.28a14.93,14.93,0,0,1,7.28,1.75,12.89,12.89,0,0,1,5,4.82,13.41,13.41,0,0,1,1.83,7,14.14,14.14,0,0,1-1.15,5.74A12.42,12.42,0,0,1,501.3,286a14.3,14.3,0,0,1-4.64,2.75l-2.5-.86a11.39,11.39,0,0,1,4.93,1.75,10.82,10.82,0,0,1,3.67,4,12.91,12.91,0,0,1,1.47,6,39.59,39.59,0,0,0,.32,4.79,7.54,7.54,0,0,0,.75,2.57,4,4,0,0,0,1.28,1.36,2.12,2.12,0,0,1,1,1.21,1.77,1.77,0,0,1-.18,1.5,1.72,1.72,0,0,1-.86.82,2.76,2.76,0,0,1-1.14.25,2,2,0,0,1-1.07-.29,6.84,6.84,0,0,1-2.07-1.78,9.9,9.9,0,0,1-1.68-3.57,24.93,24.93,0,0,1-.68-6.57,10,10,0,0,0-.89-4.53,7.53,7.53,0,0,0-2.28-2.75,8.13,8.13,0,0,0-3.08-1.36,15,15,0,0,0-3.17-.36H473.81l.79-1.07v20.21a2.2,2.2,0,0,1-.57,1.5A1.93,1.93,0,0,1,472.53,312.28ZM473.81,287h17.92a9.94,9.94,0,0,0,4.54-1.58,10.28,10.28,0,0,0,3.46-3.82,11.6,11.6,0,0,0,1.36-5.67,9.05,9.05,0,0,0-2.75-6.75,9.89,9.89,0,0,0-7.18-2.68H474.1l.5-.93V288Z"/><path class="cls-2" d="M561.78,287.29A29.41,29.41,0,0,1,560,297.61a24.32,24.32,0,0,1-5,8.14,22.17,22.17,0,0,1-7.6,5.35,25.3,25.3,0,0,1-19.24,0,22.24,22.24,0,0,1-7.57-5.35,24.89,24.89,0,0,1-5-8.14,30.81,30.81,0,0,1,0-20.64,25,25,0,0,1,5-8.14,22.38,22.38,0,0,1,7.57-5.35,25.43,25.43,0,0,1,19.24,0,22.31,22.31,0,0,1,7.6,5.35,24.42,24.42,0,0,1,5,8.14A29.41,29.41,0,0,1,561.78,287.29Zm-4.57,0a24,24,0,0,0-2.5-11.17,19,19,0,0,0-6.82-7.54,18.52,18.52,0,0,0-10-2.71,18.74,18.74,0,0,0-10,2.71,18.55,18.55,0,0,0-6.86,7.54,26.61,26.61,0,0,0,0,22.35A19.32,19.32,0,0,0,547.89,306a19.07,19.07,0,0,0,6.82-7.53A24,24,0,0,0,557.21,287.29Z"/><path class="cls-2" d="M616.47,287.29a29.18,29.18,0,0,1-1.75,10.32,24.46,24.46,0,0,1-5,8.14,22.21,22.21,0,0,1-7.61,5.35,25.3,25.3,0,0,1-19.24,0,22.44,22.44,0,0,1-7.57-5.35,24.89,24.89,0,0,1-5-8.14,30.81,30.81,0,0,1,0-20.64,25,25,0,0,1,5-8.14,22.58,22.58,0,0,1,7.57-5.35,25.43,25.43,0,0,1,19.24,0,22.35,22.35,0,0,1,7.61,5.35,24.56,24.56,0,0,1,5,8.14A29.18,29.18,0,0,1,616.47,287.29Zm-4.57,0a23.86,23.86,0,0,0-2.5-11.17,19,19,0,0,0-6.82-7.54,18.52,18.52,0,0,0-10-2.71,18.34,18.34,0,0,0-16.89,10.25,26.61,26.61,0,0,0,0,22.35,18.36,18.36,0,0,0,16.89,10.24,18.44,18.44,0,0,0,10-2.71,19.07,19.07,0,0,0,6.82-7.53A23.93,23.93,0,0,0,611.9,287.29Z"/><path class="cls-2" d="M628.75,262.3a2.43,2.43,0,0,1,1,.25,2.61,2.61,0,0,1,.89.68l19.7,29.56-1.92-.07,19.78-29.49a2,2,0,0,1,1.92-.93,2,2,0,0,1,1.47.61,2.07,2.07,0,0,1,.6,1.53v45.7a2,2,0,0,1-.68,1.5,2.23,2.23,0,0,1-1.6.64,2.13,2.13,0,0,1-1.57-.64,2.05,2.05,0,0,1-.64-1.5V268.8l1.28.14L651,296.29a1.65,1.65,0,0,1-.68.68,2,2,0,0,1-1.93,0,2.14,2.14,0,0,1-.75-.68l-18.14-27.63,1.36-.93v42.41a2.1,2.1,0,0,1-.61,1.5,2,2,0,0,1-1.53.64,1.9,1.9,0,0,1-1.5-.64,2.2,2.2,0,0,1-.57-1.5v-45.7a2.17,2.17,0,0,1,.6-1.46A2,2,0,0,1,628.75,262.3Z"/><path class="cls-2" d="M699.36,313a22.82,22.82,0,0,1-9.42-1.68A25.74,25.74,0,0,1,682.3,306a3.88,3.88,0,0,1-.61-.79,2,2,0,0,1-.25-1,2.26,2.26,0,0,1,.68-1.57,2.08,2.08,0,0,1,1.54-.71,2.21,2.21,0,0,1,1.57.71,19,19,0,0,0,6.32,4.57,18.43,18.43,0,0,0,7.6,1.57,16.19,16.19,0,0,0,6.1-1.07,9.89,9.89,0,0,0,4.25-3.07,7.27,7.27,0,0,0,1.57-4.64,7.94,7.94,0,0,0-1.82-5.28,13.73,13.73,0,0,0-4.67-3.36,44.35,44.35,0,0,0-6.5-2.36q-2.93-.92-5.61-2a19.94,19.94,0,0,1-4.71-2.71,11.3,11.3,0,0,1-3.18-4,12.84,12.84,0,0,1-1.14-5.64,11.78,11.78,0,0,1,2-6.74,13.31,13.31,0,0,1,5.68-4.65,20.48,20.48,0,0,1,8.53-1.67,23.33,23.33,0,0,1,8.1,1.42,14,14,0,0,1,6.18,4.22A3.24,3.24,0,0,1,715,269.3a2,2,0,0,1-.71,1.46,2.26,2.26,0,0,1-1.57.68,1.67,1.67,0,0,1-1.22-.5,12.62,12.62,0,0,0-3.07-2.68,15.84,15.84,0,0,0-4.1-1.82,17.84,17.84,0,0,0-10.71.39,9.81,9.81,0,0,0-4.22,3,7.32,7.32,0,0,0-1.53,4.71,7,7,0,0,0,1.71,4.89,13.24,13.24,0,0,0,4.5,3.14c1.86.84,3.83,1.61,5.93,2.32a60.69,60.69,0,0,1,5.89,2,21,21,0,0,1,5,2.75,11.5,11.5,0,0,1,3.42,4.14,13.88,13.88,0,0,1,1.25,6.28,11.1,11.1,0,0,1-2.07,6.57,14.29,14.29,0,0,1-5.67,4.64A20.36,20.36,0,0,1,699.36,313Z"/></svg>